<svg width="280" height="240" viewBox="0 0 280 240" fill="none" xmlns="http://www.w3.org/2000/svg">
<rect x="108.874" y="9.01025" width="21.3613" height="22.9634" fill="white"/>
<rect x="115.33" y="21.9263" width="9.80987" height="30.9738" transform="rotate(-26.4612 115.33 21.9263)" fill="white"/>
<path d="M63.2715 119.326C63.9926 119.371 64.673 119.675 65.1874 120.182C65.9853 121.011 82.7453 138.627 82.9825 139.095C83.2197 139.563 77.364 139.567 76.7941 139.567C76.2242 139.567 63.9245 139.727 63.598 139.095C63.2715 138.464 63.2715 119.326 63.2715 119.326Z" fill="#3FBDF1"/>
<path d="M51.9414 40.7222C51.9414 40.7222 52.2495 38.9972 55.3298 39.6533C58.4101 40.3094 70.0229 43.3189 70.3741 43.3897C70.7253 43.4606 74.8806 43.0416 72.4533 45.7184L42.9715 78.2313C42.9715 78.2313 34.9319 84.9864 39.9097 93.1924L50.2226 104.54L56.8854 111.496C56.8854 111.496 58.481 110.615 58.1883 115.439C57.8957 120.262 58.444 137.185 58.444 137.185C58.444 137.185 58.752 138.667 56.8761 137.121C55.0002 135.575 29.7693 108.338 29.7693 108.338L17.8977 95.2501C17.8977 95.2501 14.1705 91.4428 15.8462 84.7184C17.5219 77.9941 25.731 70.6568 25.731 70.6568L51.9414 40.7222Z" fill="#3FBDF1"/>
<path d="M119.229 121.75C114.227 124.975 109.432 128.512 104.872 132.337C97.0413 124.106 82.4498 108.35 82.4498 108.35L70.5844 95.262C70.5844 95.262 66.848 91.4516 68.5298 84.7272C68.5606 84.6102 68.5883 84.4901 68.6284 84.3638C75.0971 92.8285 84.03 105.877 103.279 104.94L119.229 121.75Z" fill="#3FBDF1"/>
<path d="M125.139 45.7057C123.507 47.5138 110.634 61.7049 102.453 70.7272L95.6759 78.2123C94.5429 79.2375 93.5674 80.4237 92.7804 81.7332C86.6629 79.4352 80.5238 77.1774 74.4463 74.7932C75.6926 73.3383 77.0236 71.9581 78.4322 70.6594L102.702 42.9365C102.967 42.9057 103.22 42.8872 103.485 42.8564C107.112 42.4987 110.718 41.9415 114.284 41.1868C115.322 40.962 116.366 40.7279 117.401 40.4814C121.098 42.496 115.984 46.6205 123.072 43.3769C123.189 43.3954 123.688 43.3769 124.264 43.4047C125.407 43.5094 126.766 43.9098 125.139 45.7057Z" fill="#3FBDF1"/>
<path d="M97.2259 139.561H83.7587H64.7285H63.2715" stroke="#CCDDE2" stroke-width="2" stroke-miterlimit="10"/>
<path d="M38.6009 39.3354L11.303 70.5237L4.4493 78.357C2.18335 80.9463 0.955199 84.2823 1.00125 87.723C1.04733 91.1635 2.36435 94.4653 4.69881 96.993L39.9501 135.094C41.2555 136.501 42.8369 137.624 44.5961 138.393C46.3553 139.161 48.254 139.559 50.1737 139.56H58.1825" stroke="#CCDDE2" stroke-width="2" stroke-miterlimit="10"/>
<path d="M53.2319 39.2368L19.0033 78.3569C16.7375 80.9472 15.5098 84.2844 15.557 87.7254C15.6042 91.1668 16.9229 94.4689 19.259 96.996L54.5041 135.093C55.5693 136.238 56.8186 137.196 58.2005 137.927" stroke="#CCDDE2" stroke-width="2" stroke-miterlimit="10"/>
<path d="M58.1888 112.856L41.8261 95.7913C39.7382 93.6569 38.5499 90.8024 38.5061 87.817C38.4627 84.8315 39.5673 81.9434 41.592 79.749L73.9354 44.085" stroke="#CCDDE2" stroke-width="2" stroke-miterlimit="10"/>
<path d="M63.2715 139.48C63.7554 139.532 64.2418 139.559 64.7285 139.561H83.7587L63.2715 118.174" stroke="#CCDDE2" stroke-width="2" stroke-miterlimit="10"/>
<path d="M103.091 104.901L103.131 104.95L119.229 121.75" stroke="#CCDDE2" stroke-width="2" stroke-miterlimit="10"/>
<path d="M103.464 42.8721L74.5918 74.8736" stroke="#CCDDE2" stroke-width="2" stroke-miterlimit="10"/>
<path d="M68.5017 84.1885C67.9466 86.4269 67.9568 88.7686 68.5315 91.0022C69.1063 93.236 70.2276 95.2915 71.7945 96.9841L104.655 132.513" stroke="#CCDDE2" stroke-width="2" stroke-miterlimit="10"/>
<path d="M92.5244 81.9489C92.5737 81.8718 92.6137 81.7948 92.6723 81.7147C93.0844 81.0084 93.573 80.3492 94.1293 79.7495L102.415 70.6009L102.495 70.5239" stroke="#CCDDE2" stroke-width="2" stroke-miterlimit="10"/>
<path d="M11.3027 70.5246C11.3027 70.5246 14.0966 43.8028 38.6006 39.3363C45.482 38.0857 52.5699 38.828 59.3034 40.5376C64.8265 41.9361 70.2879 43.8305 76.0173 44.1724C82.1163 44.5359 88.3016 43.9475 94.3914 43.5871C97.1391 43.4208 99.9145 43.2268 102.681 42.9526C102.945 42.9218 103.198 42.9033 103.463 42.8725C107.091 42.5149 110.696 41.9573 114.263 41.203C115.301 40.9781 116.345 40.744 117.38 40.4976C117.9 40.3898 118.418 40.2635 118.935 40.1464" stroke="#CCDDE2" stroke-width="2" stroke-miterlimit="10"/>
<path d="M206.387 217.979C220.322 205.882 228.827 185.771 231.858 167.622" stroke="#CCDDE2" stroke-width="2" stroke-miterlimit="10"/>
<path d="M133.636 35.8059C139.248 34.2658 146.841 31.6906 156.988 27.4305C187.033 14.8012 197.725 26.9007 197.725 26.9007C199.483 28.459 200.977 30.2918 202.148 32.3283C202.293 32.5716 202.432 32.8242 202.558 33.0706C212.782 52.2364 194.549 73.084 202.01 92.5209C206.242 103.585 216.749 110.661 221.998 121.199C224.79 126.858 226.805 132.867 227.989 139.065" stroke="#CCDDE2" stroke-width="2" stroke-miterlimit="10"/>
<path d="M118.526 35.1616C118.496 35.1632 118.465 35.1694 118.437 35.1802" stroke="#CCDDE2" stroke-width="2" stroke-miterlimit="10"/>
<path d="M58.1889 79.9554V81.089C58.2006 81.8933 57.9363 82.6775 57.4404 83.3108C56.9445 83.9441 56.2465 84.3883 55.4628 84.5698C54.9574 84.6788 54.434 84.6733 53.9313 84.5537C53.4283 84.4339 52.9585 84.2032 52.5565 83.8782C52.1543 83.5532 51.8302 83.1423 51.6075 82.6757C51.3851 82.209 51.2699 81.6986 51.2705 81.1814V80.3127C51.2705 77.1646 52.6474 73.9765 55.1209 71.9959C59.5781 68.4104 65.5478 71.2443 70.1036 73.0801C71.5421 73.6685 72.9776 74.2353 74.4161 74.802C80.4936 77.1862 86.6326 79.4441 92.7502 81.742L95.008 82.5922C95.6149 82.8269 96.2667 82.9215 96.9151 82.8685C97.5635 82.8155 98.1916 82.6165 98.7522 82.2866C99.3128 81.9564 99.7915 81.5039 100.153 80.9624C100.513 80.4212 100.747 79.8051 100.836 79.1607C101.227 76.4747 101.735 73.6161 102.429 70.736C105.312 58.6735 111.284 46.0934 124.157 43.4351L124.234 43.4166C140.341 40.1607 155.296 50.8186 161.488 65.1575C166.844 77.5805 173.384 89.5845 181.534 100.412C196.687 120.539 209.461 128.973 230.906 140.684C245.821 148.835 260.708 158.858 272.093 171.647C273.883 173.662 278.87 181.412 278.183 184.745C278.183 184.745 276.482 200.569 275.749 207.441C275.657 208.334 275.225 209.157 274.543 209.739C273.86 210.322 272.979 210.62 272.083 210.571C271.187 210.521 270.344 210.129 269.73 209.476C269.115 208.822 268.775 207.956 268.782 207.059V197.735C268.783 197.089 268.708 196.446 268.557 195.819C266.992 188.663 257.159 181.88 252.028 178.43C241.826 171.587 230.605 166.401 218.782 163.066C209.263 160.367 199.733 159.81 190.058 158.297C189.402 158.199 188.748 158.096 188.092 157.989C175.728 155.833 163.373 151.859 152.151 146.016C140.033 139.711 129.221 131.231 121.089 120.573C117.13 115.399 113.869 109.727 111.392 103.702" fill="white"/>
<path d="M58.1889 79.9554V81.089C58.2006 81.8933 57.9363 82.6775 57.4404 83.3108C56.9445 83.9441 56.2465 84.3883 55.4628 84.5698C54.9574 84.6788 54.434 84.6733 53.9313 84.5537C53.4283 84.4339 52.9585 84.2032 52.5565 83.8782C52.1543 83.5532 51.8302 83.1423 51.6075 82.6757C51.3851 82.209 51.2699 81.6986 51.2705 81.1814V80.3127C51.2705 77.1646 52.6474 73.9765 55.1209 71.9959C59.5781 68.4104 65.5478 71.2443 70.1036 73.0801C71.5421 73.6685 72.9776 74.2353 74.4161 74.802C80.4936 77.1862 86.6326 79.4441 92.7502 81.742L95.0081 82.5922C95.6149 82.8269 96.2667 82.9215 96.9151 82.8685C97.5635 82.8155 98.1916 82.6165 98.7522 82.2866C99.3128 81.9564 99.7915 81.5039 100.153 80.9624C100.513 80.4212 100.747 79.8051 100.836 79.1607C101.227 76.4747 101.735 73.6161 102.429 70.736C105.312 58.6735 111.284 46.0934 124.157 43.4351L124.234 43.4166C140.341 40.1607 155.296 50.8186 161.488 65.1575C166.844 77.5805 173.384 89.5845 181.534 100.412C196.687 120.539 209.461 128.973 230.906 140.684C245.821 148.835 260.708 158.858 272.093 171.647C273.883 173.662 278.87 181.412 278.183 184.745C278.183 184.745 276.482 200.569 275.749 207.441C275.657 208.334 275.225 209.157 274.543 209.739C273.86 210.322 272.979 210.62 272.083 210.571C271.187 210.521 270.344 210.129 269.73 209.476C269.115 208.822 268.775 207.956 268.782 207.059V197.735C268.783 197.089 268.708 196.446 268.557 195.819C266.992 188.663 257.159 181.88 252.028 178.43C241.826 171.587 230.605 166.401 218.782 163.066C209.263 160.367 199.733 159.81 190.058 158.297C189.402 158.199 188.748 158.096 188.092 157.989C175.728 155.833 163.373 151.859 152.151 146.016C140.033 139.711 129.221 131.231 121.089 120.573C117.13 115.399 113.869 109.727 111.392 103.702" stroke="black" stroke-width="2" stroke-miterlimit="10"/>
<path d="M185.096 104.99C182.407 141.923 145.024 141.954 144.395 141.544C144.395 141.544 146.816 144.082 132.089 132.349C117.362 120.616 111.316 103.197 111.316 103.197C105.118 106.08 93.7209 104.593 93.7209 104.593C86.3589 102.375 80.1952 97.7234 75.4854 92.9951C81.9818 85.0201 80.7219 78.9211 80.2321 77.3748C86.4113 79.8945 93.4775 82.562 96.3638 82.8732C101.961 83.4738 101.456 75.5266 101.456 75.5266C106.47 44.9852 124.185 43.4357 124.185 43.4357C143.376 41.2179 154.499 49.4917 163.761 70.2346C173.024 90.9775 185.096 104.99 185.096 104.99Z" fill="#2E2E2E"/>
<path d="M149.293 222.824H115.591C114.931 222.482 114.406 221.927 114.099 221.25C113.792 220.573 113.722 219.812 113.9 219.09C114.078 218.368 114.493 217.727 115.079 217.27C115.665 216.812 116.388 216.565 117.131 216.568H125.31C125.31 216.568 124.983 216.331 124.386 215.872H143.557C146.394 219.362 148.504 221.882 149.293 222.824Z" fill="#3FBDF1"/>
<path d="M271.193 170.73L269.607 188.46C269.591 188.571 269.573 188.676 269.557 188.796C269.117 192.332 267.188 192.372 267.188 192.372L268.92 196.133L268.775 197.732V207.056C268.775 207.731 268.97 208.391 269.338 208.957C269.705 209.523 270.228 209.97 270.844 210.245C271.46 210.52 272.143 210.611 272.809 210.506C273.475 210.401 274.097 210.106 274.6 209.656C275.244 209.085 275.65 208.294 275.739 207.438C276.476 200.569 278.179 184.745 278.179 184.745C278.848 181.413 272.976 172.738 271.193 170.73Z" fill="#3FBDF1"/>
<path d="M152.148 146.002C134.818 160.479 113.219 163.35 115.388 172.979C117.618 182.836 134.341 204.491 143.566 215.866C146.382 219.366 148.495 221.879 149.296 222.806C149.499 223.071 149.604 223.198 149.604 223.198H117.131C116.588 223.201 116.053 223.066 115.575 222.806C114.923 222.459 114.406 221.904 114.106 221.229C113.805 220.554 113.739 219.798 113.918 219.082C114.097 218.365 114.51 217.729 115.092 217.274C115.675 216.819 116.392 216.572 117.131 216.572H125.312L124.388 215.866C118.141 211.067 82.1878 182.312 85.8195 159.706C87.4213 149.695 95.6396 140.155 104.868 132.337C109.428 128.512 114.223 124.976 119.226 121.75C119.86 121.341 120.476 120.94 121.074 120.558" fill="white"/>
<path d="M152.148 146.002C134.818 160.479 113.219 163.35 115.388 172.979C117.618 182.836 134.341 204.491 143.566 215.866C146.382 219.366 148.495 221.879 149.296 222.806C149.499 223.071 149.604 223.198 149.604 223.198H117.131C116.588 223.201 116.053 223.066 115.575 222.806C114.923 222.459 114.406 221.904 114.106 221.229C113.805 220.554 113.739 219.798 113.918 219.082C114.097 218.365 114.51 217.729 115.092 217.274C115.675 216.819 116.392 216.572 117.131 216.572H125.312L124.388 215.866C118.141 211.067 82.1878 182.312 85.8195 159.706C87.4213 149.695 95.6396 140.155 104.868 132.337C109.428 128.512 114.223 124.976 119.226 121.75C119.86 121.341 120.476 120.94 121.074 120.558" stroke="black" stroke-width="2" stroke-miterlimit="10"/>
<path d="M63.2681 79.9562V223.536C63.2681 224.21 63.0004 224.857 62.5239 225.333C62.047 225.81 61.4008 226.078 60.7268 226.078C60.0528 226.078 59.4066 225.81 58.9298 225.333C58.4532 224.857 58.1855 224.21 58.1855 223.536V79.9562C58.1868 79.4538 58.3368 78.9632 58.6165 78.5461C58.8962 78.129 59.2929 77.8037 59.7571 77.6118C60.2213 77.4196 60.7317 77.3694 61.2246 77.467C61.7171 77.5647 62.1699 77.8059 62.5257 78.1604C62.7626 78.3951 62.9505 78.6751 63.078 78.9835C63.2056 79.2918 63.2699 79.6226 63.2681 79.9562Z" stroke="black" stroke-width="2" stroke-miterlimit="10"/>
<path d="M75.7532 223.2C75.7547 226.064 74.9372 228.87 73.3977 231.286C71.8578 233.701 69.6597 235.626 67.0624 236.834C64.4647 238.043 61.5763 238.483 58.7369 238.104C55.8974 237.725 53.2252 236.543 51.0354 234.696C48.8456 232.849 47.2291 230.415 46.3764 227.68C45.5238 224.946 45.4705 222.024 46.223 219.26C46.9756 216.496 48.5022 214.004 50.6233 212.079C52.7444 210.154 55.3716 208.875 58.1953 208.393V223.535C58.1953 224.209 58.463 224.856 58.9395 225.333C59.4164 225.809 60.0626 226.077 60.7366 226.077C61.4106 226.077 62.0568 225.809 62.5337 225.333C63.0102 224.856 63.2779 224.209 63.2779 223.535V208.393C66.77 208.992 69.9375 210.808 72.2207 213.517C74.5035 216.227 75.7547 219.657 75.7532 223.2Z" stroke="black" stroke-width="2" stroke-miterlimit="10"/>
<path d="M187.645 238.229C195.945 238.229 202.674 231.501 202.674 223.2C202.674 214.9 195.945 208.171 187.645 208.171C179.345 208.171 172.616 214.9 172.616 223.2C172.616 231.501 179.345 238.229 187.645 238.229Z" stroke="black" stroke-width="2" stroke-miterlimit="10"/>
<path d="M138.631 66.3594C136.383 81.4992 126.757 99.171 111.389 103.687C110.241 104.025 109.072 104.286 107.89 104.469C106.359 104.707 104.816 104.865 103.269 104.94C84.0326 105.865 75.0904 92.8286 68.6187 84.3639C65.7262 80.5535 63.3205 77.6796 60.7207 77.4147" stroke="black" stroke-width="2" stroke-miterlimit="10"/>
<path d="M75.7559 223.2H140.926H172.691" stroke="black" stroke-width="2" stroke-miterlimit="10"/>
<path d="M187.719 226.071C189.121 226.071 190.257 224.934 190.257 223.533C190.257 222.131 189.121 220.995 187.719 220.995C186.317 220.995 185.181 222.131 185.181 223.533C185.181 224.934 186.317 226.071 187.719 226.071Z" stroke="black" stroke-width="2" stroke-miterlimit="10"/>
<path d="M202.674 223.2H207.098C207.098 218.041 205.049 213.094 201.401 209.447C197.754 205.8 192.807 203.75 187.648 203.75C182.49 203.75 177.543 205.8 173.896 209.447C170.248 213.094 168.199 218.041 168.199 223.2" stroke="black" stroke-width="2" stroke-miterlimit="10"/>
<path d="M41.2744 223.2C41.2726 218.481 42.9874 213.922 46.0991 210.375C49.2106 206.827 53.5067 204.533 58.1854 203.92" stroke="black" stroke-width="2" stroke-miterlimit="10"/>
<path d="M63.2676 203.92C67.9444 204.535 72.2378 206.831 75.3471 210.378C78.4564 213.925 80.1693 218.482 80.1662 223.2H75.7521" stroke="black" stroke-width="2" stroke-miterlimit="10"/>
<path d="M106.016 11.5575C107.264 12.8543 109.297 13.0545 110.994 13.0053C113.15 12.9467 115.331 12.5678 117.463 12.266L118.747 12.2845H118.766C119.013 12.3008 119.253 12.3652 119.475 12.4745C119.697 12.5839 119.895 12.736 120.058 12.9221C120.22 13.1081 120.345 13.3244 120.424 13.5585C120.503 13.7926 120.535 14.0402 120.519 14.2867C120.366 17.0546 119.908 19.7974 119.154 22.4649L121.523 23.9589C121.899 23.0902 121.624 21.8027 122.385 21.7472C122.927 20.8786 123.685 20.3395 124.766 21.0849C126.886 22.5419 127.502 26.4478 125.259 28.0711L126.454 30.711C127.314 32.6208 130.875 33.5295 132.908 33.0582C132.205 31.1761 130.249 30.0087 130.249 30.0087C133.477 30.8034 136.031 26.879 135.199 24.3224C134.636 22.5697 134.756 21.242 135.779 19.6403C135.846 19.5325 135.239 19.3322 135.301 19.2275C135.412 18.0139 135.159 16.6832 134.614 16.0209C133.656 14.8411 131.589 14.4992 132.125 12.8451C132.362 12.1234 132.482 11.3684 132.479 10.6088C132.433 9.61227 132.174 8.63735 131.719 7.74929C131.264 6.86154 130.624 6.0813 129.843 5.46154C128.198 4.22941 126.205 5.11346 124.369 4.96252C122.139 4.7931 120.673 2.8063 118.328 2.61224C117.164 2.51675 116.197 2.92027 115.168 3.40696C114.302 3.82896 113.449 4.27869 112.614 4.76847C111.78 5.25824 111.043 5.69256 110.092 5.62171C108.86 5.55702 107.704 4.69762 106.432 4.97485C105.794 5.10545 105.219 5.44737 104.8 5.94515C104.248 7.85187 104.809 10.3038 106.016 11.5575Z" fill="#3FBDF1"/>
<path d="M121.536 23.6876C121.588 23.5398 121.641 23.3981 121.702 23.2379V23.2194C121.874 22.713 122.096 22.2248 122.365 21.7624C122.913 20.8938 123.665 20.3547 124.752 21.0971C126.874 22.5572 127.484 26.463 125.248 28.0925L126.44 30.7262C126.483 30.8241 126.533 30.919 126.591 31.0096C127.253 32.1585 128.695 32.981 130.33 33.0672H130.358C130.949 33.0959 131.54 33.0272 132.108 32.8639" stroke="black" stroke-width="2" stroke-linecap="round" stroke-linejoin="round"/>
<path d="M108.506 17.4622C108.506 17.4622 112.661 16.7168 114.241 19.9265" stroke="black" stroke-width="2" stroke-miterlimit="10"/>
<path d="M109.085 26.7922C107.96 27.0202 106.46 27.1958 105.678 26.1762L107.785 22.3997C108.298 21.4744 108.48 20.4021 108.302 19.3594C108.013 17.6067 107.175 14.9145 108.407 12.709" fill="white"/>
<path d="M109.085 26.7922C107.96 27.0202 106.46 27.1958 105.678 26.1762L107.785 22.3997C108.298 21.4744 108.48 20.4021 108.302 19.3594C108.013 17.6067 107.175 14.9145 108.407 12.709" stroke="black" stroke-width="2" stroke-miterlimit="10"/>
<path d="M112.189 21.7609C112.533 21.2669 112.342 20.538 111.761 20.1336C111.18 19.7292 110.43 19.8019 110.086 20.2959C109.742 20.7903 109.934 21.5188 110.514 21.9233C111.095 22.3277 111.845 22.255 112.189 21.7609Z" fill="black"/>
<path d="M118.773 45.2843L118.526 35.0176" stroke="black" stroke-width="2" stroke-miterlimit="10"/>
<path d="M121.508 23.968C121.508 23.8725 121.529 23.7771 121.536 23.6816C121.542 23.5861 121.563 23.4813 121.566 23.3735" stroke="black" stroke-width="2" stroke-linecap="round" stroke-linejoin="round"/>
<path d="M121.507 23.9676L120.694 23.4593L119.139 22.4736" stroke="black" stroke-width="2" stroke-linecap="round" stroke-linejoin="round"/>
<path d="M114.491 27.4312C114.491 27.4312 114.229 30.1511 111.038 31.069" stroke="black" stroke-width="2" stroke-miterlimit="10"/>
<path d="M130.234 30.0177C133.462 30.8124 136.016 26.8881 135.184 24.3314C134.62 22.5787 134.741 21.2511 135.763 19.6493C135.831 19.5415 135.89 19.4337 135.948 19.3413C136.327 18.6765 136.498 17.9135 136.438 17.1505C136.378 16.3875 136.09 15.6603 135.612 15.0627C134.688 13.7998 133.203 13.2792 133.764 11.5665C134.011 10.8235 134.136 10.0455 134.134 9.26244C134.086 8.23515 133.818 7.22973 133.349 6.31457C132.879 5.3994 132.218 4.59575 131.411 3.95812C129.72 2.66746 127.659 3.6008 125.758 3.44678C123.47 3.26196 121.942 1.20123 119.539 1.01333C118.341 0.920919 117.337 1.32136 116.277 1.8327C115.384 2.27318 114.5 2.73831 113.65 3.2404C112.799 3.7425 112.02 4.18298 111.041 4.12138C109.759 4.04745 108.576 3.16031 107.273 3.45295C105.97 3.74558 105.139 4.7436 104.809 5.95417C104.273 7.85165 104.834 10.3036 106.041 11.5573C107.249 12.811 109.322 13.0543 111.019 13.005C113.175 12.9465 115.356 12.5676 117.488 12.2658L118.772 12.2842H118.791C119.284 12.3231 119.743 12.555 120.067 12.9299C120.39 13.3051 120.553 13.7924 120.519 14.2864C120.366 17.0544 119.908 19.7972 119.154 22.4647" stroke="black" stroke-width="2" stroke-miterlimit="10"/>
<path d="M121.443 32.4417C121.443 32.4417 116.145 38.6023 111.913 36.8558C107.68 35.1092 107.988 27.0942 107.988 27.0942" fill="#FFFBFB"/>
<path d="M121.443 32.4417C121.443 32.4417 116.145 38.6023 111.913 36.8558C107.68 35.1092 107.988 27.0942 107.988 27.0942" stroke="black" stroke-width="2" stroke-linecap="round" stroke-linejoin="round"/>
<path d="M75.2043 92.7305L75.4692 92.9954C75.2998 93.2172 75.115 93.4359 74.9209 93.6576L75.2043 92.7305Z" fill="#2E2E2E"/>
<path d="M80.2071 77.3749L79.9854 77.2856L80.0747 76.9775C80.1283 77.1066 80.1726 77.2394 80.2071 77.3749Z" fill="#2E2E2E"/>
<path d="M60.7236 238.227H233.339" stroke="black" stroke-width="2" stroke-miterlimit="10"/>
<path d="M130.662 30.0947L137.978 44.1133" stroke="black" stroke-width="2" stroke-linecap="round" stroke-linejoin="round"/>
<path d="M218.353 129.056C218.353 129.056 247.178 141.454 252.972 149.124" stroke="black" stroke-width="2" stroke-miterlimit="10"/>
<path d="M213.145 222.809H225.524" stroke="black" stroke-width="2" stroke-miterlimit="10"/>
<path d="M219.333 219.341H237.904" stroke="black" stroke-width="2" stroke-miterlimit="10"/>
<path d="M183.825 63.0172C195.182 63.0172 204.389 53.8101 204.389 42.4529C204.389 31.0955 195.182 21.8887 183.825 21.8887C172.468 21.8887 163.261 31.0955 163.261 42.4529C163.261 53.8101 172.468 63.0172 183.825 63.0172Z" stroke="#CCDDE2" stroke-width="2" stroke-miterlimit="10"/>
<path d="M183.826 53.7483C190.064 53.7483 195.121 48.6911 195.121 42.4528C195.121 36.2142 190.064 31.1572 183.826 31.1572C177.588 31.1572 172.53 36.2142 172.53 42.4528C172.53 48.6911 177.588 53.7483 183.826 53.7483Z" stroke="#CCDDE2" stroke-width="2" stroke-miterlimit="10"/>
<path d="M183.826 44.3897C184.896 44.3897 185.764 43.5223 185.764 42.4522C185.764 41.3824 184.896 40.5146 183.826 40.5146C182.756 40.5146 181.889 41.3824 181.889 42.4522C181.889 43.5223 182.756 44.3897 183.826 44.3897Z" stroke="#CCDDE2" stroke-width="2" stroke-miterlimit="10"/>
<path d="M187.834 35.9868L184.846 40.8044" stroke="#CCDDE2" stroke-width="2" stroke-miterlimit="10"/>
<path d="M183.826 31.1572V33.1656" stroke="#CCDDE2" stroke-width="2" stroke-miterlimit="10"/>
<path d="M195.121 42.4531H193.218" stroke="#CCDDE2" stroke-width="2" stroke-miterlimit="10"/>
<path d="M183.826 53.7483V51.7954" stroke="#CCDDE2" stroke-width="2" stroke-miterlimit="10"/>
<path d="M172.53 42.4531H174.246" stroke="#CCDDE2" stroke-width="2" stroke-miterlimit="10"/>
</svg>
